<?xml version="1.0" encoding="UTF-8"?>
<svg width="630px" height="630px" viewBox="0 0 630 630" version="1.1" xmlns="http://www.w3.org/2000/svg" xmlns:xlink="http://www.w3.org/1999/xlink">
    <!-- Generator: Sketch 48.2 (47327) - http://www.bohemiancoding.com/sketch -->
    <title>Artboard</title>
    <desc>Created with Sketch.</desc>
    <defs></defs>
    <g id="Artboard" stroke="none" stroke-width="1" fill="none" fill-rule="evenodd" transform="translate(-1306.000000, 0.000000)">
        <g id="ghost" transform="translate(1334.000000, 26.000000)" fill-rule="nonzero" stroke="#FFFFFF" stroke-width="20">
            <path d="M10,261.126681 L0,261.126681 L0,266.486681 L10,266.486681 L10,261.126681 Z M563.6,260.103266 L563.6,261.046681 L573.008088,261.046681 L573.003034,260.916095 L569.699716,260.193494 C568.78347,260.172262 567.698264,260.131845 566.272275,260.071414 C565.242884,260.02779 564.382561,259.993702 563.622745,259.968579 C563.614992,260.013586 563.607411,260.058474 563.6,260.103266 Z M3.23844789,288.818972 C3.24237494,286.86804 3.22895704,284.575138 3.20330995,281.73414 C3.20144288,281.52732 3.19963864,281.324901 3.19789814,281.126681 C2.31671287,281.126681 1.28307466,281.126681 0,281.126681 L-10,281.126681 L-10,271.126681 C-10,263.806681 -10,263.806681 -10,256.486681 L-10,246.486681 L-7.63975683,246.486681 C-6.39287931,244.366035 -4.66272236,242.438525 -2.54068156,240.579524 C-2.37167137,240.431464 -1.0055092,239.26374 -0.781551874,239.057494 C1.73632352,236.734094 4.33206856,234.343438 7.05225034,231.842306 C11.3335193,227.905799 15.7743404,223.831972 21.3091577,218.761604 C23.7493486,216.526179 33.2405294,207.835546 35.5397262,205.729338 C44.6118299,197.418724 51.2524163,191.319974 57.777199,185.298647 C61.002398,182.32154 64.3861225,179.214921 68.2144703,175.713696 C66.3185821,177.447585 91.7784091,154.225613 98.7374596,147.814787 C108.362256,138.948219 116.559105,131.260293 124.342945,123.764093 C133.350284,115.088822 141.697223,106.523059 154.886257,92.6003413 C156.472858,90.925481 161.998154,85.084196 162.089619,84.9875506 C164.982159,81.9311671 167.192812,79.6011265 169.359867,77.3272187 C176.126134,70.2273214 181.768735,64.4158107 187.328932,58.8556132 C195.289689,50.8948564 199.177855,46.8444645 217.286758,27.8026852 C226.863993,17.7320803 232.771679,11.5904494 239.011786,5.27457979 C240.203871,4.06802112 241.374983,2.88956197 242.528932,1.73561321 C243.051285,1.2132606 243.592497,0.631126094 244.542921,-0.421367211 C248.779327,-5.11273507 250.084449,-6.39419968 253.143846,-7.98412071 C257.059504,-10.0217356 260.727243,-10.2307252 267.537936,-9.88027436 C268.063596,-9.85322601 268.551457,-9.8257508 269.340834,-9.77964733 C271.854418,-9.63284162 272.69927,-9.59331898 273.6,-9.59331898 C282.082196,-9.59331898 282.082196,-9.59331898 290.194887,-9.59331898 C295.757874,-9.59331898 295.757874,-9.59331898 301.44,-9.59331898 C302.262433,-9.59331898 303.154126,-9.61254516 304.289232,-9.65175327 C304.731687,-9.66703626 305.107708,-9.68131425 305.899168,-9.71232061 C311.341379,-9.92552548 313.731501,-9.92552548 316.904579,-9.50772585 C320.436173,-9.04266784 323.405585,-7.46139081 326.123062,-5.11553209 C327.757627,-3.7044955 329.095396,-2.23073189 330.886275,-0.0374798377 C331.145051,0.279437679 332.04221,1.38825593 331.950705,1.27543332 C332.324124,1.73584552 332.591035,2.06020175 332.830968,2.34383955 C339.410114,10.1121339 346.161979,18.1331672 354.439583,28.0039499 C358.3969,32.722926 372.672274,49.7692419 375.704113,53.3856831 C383.365703,62.5245872 389.511887,69.8323579 395.467675,76.8761364 C401.444834,83.9451907 407.040047,90.5218376 412.474425,96.8609367 C414.21871,98.8971129 415.986772,100.99968 418.246727,103.715864 C418.802299,104.383592 422.54466,108.893449 423.628537,110.193369 C427.918742,115.338713 431.005702,118.924201 434.092435,122.29041 C434.885095,123.155359 435.874298,123.996133 437.849959,125.505592 C438.051103,125.659272 438.799908,126.229465 438.768235,126.205323 C439.159331,126.503416 439.458825,126.732882 439.756761,126.96331 C440.489284,127.529853 441.124698,128.035308 441.748024,128.552143 C455.023859,139.572047 468.540737,150.743094 486.989601,165.95488 C491.033148,169.288938 512.497295,186.979799 518.604217,192.016126 C540.225732,209.847209 556.181472,223.04839 571.831292,236.074856 C572.157115,236.345547 573.952884,237.81288 574.496287,238.264993 C575.732222,239.293294 576.733117,240.169489 577.667399,241.063642 C580.04758,243.341593 581.752181,245.467151 582.843599,248.111466 L583.6,249.944092 L583.6,251.926681 C583.6,254.206681 583.6,254.206681 583.6,256.486681 C583.6,258.766681 583.6,258.766681 583.6,261.046681 L583.6,262.127651 L583.369,263.18365 C583.363015,263.211011 583.337612,263.470552 583.326154,263.924555 C583.312196,264.477661 583.319767,265.021834 583.354279,266.333729 C583.354296,266.334409 583.354296,266.334409 583.354314,266.33509 C583.409714,268.441027 583.416814,269.404201 583.346423,270.706434 L582.854511,279.806799 L573.747676,280.159202 C572.280638,280.215972 571.04529,280.227398 569.517588,280.195403 C569.534033,281.086882 569.552887,282.055841 569.574255,283.121315 C569.574288,283.122957 569.574288,283.122957 569.574321,283.1246 C569.619662,285.385429 569.654877,287.289991 569.679909,288.966681 C570.616736,288.966681 571.723201,288.966681 573.12,288.966681 L582.71201,288.966681 L583.111331,298.550376 C583.34285,304.106836 583.415529,310.048984 583.359659,316.809323 L583.325552,320.936244 L580.390721,323.837866 C576.511547,327.673148 573.179412,330.201125 565.874847,335.248119 C565.800438,335.299531 565.800438,335.299531 565.726139,335.350865 C563.462272,336.915036 562.429377,337.636764 561.211179,338.516163 C537.48557,355.63474 514.609229,372.434123 478.357962,399.262199 C475.252621,401.560334 472.231043,403.797146 467.587812,407.234906 C453.679946,417.532026 450.007931,420.249964 443.469113,425.084594 C442.396198,425.878693 441.39367,426.557557 439.828526,427.576371 C439.669209,427.680076 439.066541,428.071567 438.92504,428.163667 C436.890402,429.487981 435.916386,430.189081 435.223183,430.836234 C434.730903,431.295695 434.016903,432.214087 432.754344,434.051879 C432.651772,434.201184 432.545574,434.35627 432.402968,434.564893 C432.221949,434.829805 432.221949,434.829805 432.035479,435.102541 C431.014726,436.594592 430.371029,437.504384 429.608814,438.498139 C422.608506,447.609593 415.261887,457.137542 407.004225,467.819152 C400.610223,476.090044 394.655743,483.779892 384.507961,496.87631 C354.173493,536.025046 343.264765,550.139326 327.85787,570.247639 L324.855885,574.165681 L319.92,574.165681 C303.72,574.165681 303.72,574.165681 287.521,574.165681 L287.014338,574.165681 L286.510271,574.114471 C284.255313,573.885383 282.151163,573.852585 276.736645,573.902579 C274.902804,573.919512 273.992316,573.925681 272.88,573.925681 C271.90071,573.925681 270.965201,573.975482 268.572269,574.139929 C268.124345,574.170711 267.871677,574.187895 267.589837,574.20656 C262.200976,574.56344 259.103148,574.519898 255.62186,573.576864 C253.020282,572.871117 251.265084,571.601618 249.346388,569.728729 C248.384172,568.789484 247.44044,567.727115 246.319353,566.370474 C246.081381,566.0825 245.836217,565.782183 245.565698,565.447885 C245.303214,565.123517 244.324936,563.905149 244.103354,563.631565 C243.640966,563.060664 243.310645,562.664273 243.059616,562.379623 C233.08407,551.067093 222.536049,539.259804 209.614376,524.911746 C204.567085,519.307301 199.722177,513.939947 191.977273,505.368591 C159.439523,469.358765 147.862437,456.464459 131.68618,438.044356 C126.434137,432.063927 120.775853,427.168442 109.467495,418.356929 C108.996805,417.990166 106.518562,416.061796 105.811422,415.510458 C103.060092,413.365319 101.054777,411.782699 99.0765163,410.185002 C71.1347754,387.616004 44.4177349,366.523812 2.718872,333.96326 C1.42611424,332.952054 1.22435257,332.793498 0.663143051,332.342768 C-3.66499426,328.866671 -6.25173766,326.129093 -7.97279974,322.149111 C-9.90355205,317.701975 -10.0080449,314.578756 -9.52235212,306.765219 C-9.44802358,305.569465 -9.41406588,304.978885 -9.38452701,304.318267 C-9.30340639,302.504057 -9.32217004,301.202629 -9.44733782,300.169995 L-10.7341216,289.554029 L-0.0558145513,288.981046 C1.02425561,288.923091 2.12074363,288.869184 3.23844789,288.818972 Z M353.607073,277.203919 C353.649902,276.130084 353.708728,275.392365 353.889686,273.390663 C353.919748,273.058128 353.938475,272.848687 353.957077,272.635389 C354.025484,271.851 354.070089,271.245478 354.094331,270.751337 C354.018195,270.675221 353.937881,270.595803 353.853452,270.513213 C353.585083,270.250685 353.283009,269.963296 352.915913,269.620388 C352.650663,269.372614 351.519694,268.327543 351.230179,268.056949 C350.481726,267.357411 349.916925,266.808615 349.385706,266.2497 C344.19399,260.779488 326.885251,242.62887 325.711165,241.395149 C323.632178,239.210566 321.714529,237.192289 319.871617,235.24873 C315.638053,230.783959 311.774875,226.687952 308.08,222.742737 C308.08,227.377373 308.08,229.68491 308.08,237.525681 C308.08,238.74645 308.036185,239.62742 307.899546,241.760496 C307.878051,242.096058 307.866233,242.282837 307.853899,242.484024 C307.795229,243.44097 307.7654,244.119102 307.760613,244.667161 C308.080337,244.973576 308.488654,245.345341 309.075758,245.867511 C309.113587,245.901156 309.737712,246.455092 309.927113,246.624033 C310.281626,246.94025 310.575726,247.205837 310.860487,247.46824 C311.652447,248.198021 312.3152,248.851395 312.922191,249.522024 C315.2868,252.125263 328.124878,266.062821 331.688929,270.020198 C332.962774,271.434623 334.170685,272.788121 335.33512,274.106906 L341.201973,280.751433 L335.309554,287.373299 C327.35442,296.313231 319.70819,304.924335 312.521222,313.040163 C311.764493,313.893586 308.465845,317.163449 308.736509,316.888351 C308.320397,317.31128 307.967171,317.681752 307.661855,318.016635 C307.538465,318.151974 307.425232,318.279041 307.322741,318.396734 C307.32775,318.938389 307.356917,319.713792 307.420231,320.78226 C307.431631,320.973776 307.431631,320.973776 307.443435,321.170237 C307.559642,323.1039 307.599,323.960992 307.599,325.125681 C307.599,327.149653 307.593697,328.779958 307.578172,332.340245 C307.569537,334.320251 307.563491,336.104871 307.560763,337.733384 C311.83302,333.435398 316.335598,328.853755 322.243308,322.807459 C323.298804,321.727203 324.33704,320.663934 325.887786,319.075318 C337.922226,306.746983 342.554344,302.028772 349.088932,295.494613 C349.542178,295.041368 350.026183,294.578032 350.672644,293.972533 C350.846369,293.809817 351.890396,292.837227 352.182903,292.562352 C352.470476,292.292113 352.718842,292.056181 352.946798,291.836302 C353.121875,291.667428 353.284106,291.508654 353.433441,291.36016 C353.414364,290.9743 353.403463,290.744121 353.392392,290.483555 C353.344922,289.366334 353.331709,288.465048 353.36744,287.540003 C353.403993,286.592946 353.424452,285.620996 353.455515,283.60429 C353.496084,280.970463 353.51358,280.039601 353.556686,278.629232 C353.571672,278.138913 353.588354,277.665332 353.607073,277.20392 Z M302.176014,216.046803 C301.862362,215.685735 301.587888,215.3898 301.354732,215.160149 C301.183721,214.991709 301.070767,214.893682 301.050965,214.879322 C301.252219,215.025271 301.558582,215.199355 302.037234,215.381455 C302.991615,215.744542 304.134741,215.926005 305.425835,215.784299 C304.356135,215.911701 303.56181,215.97174 302.176014,216.046803 Z M305.425835,215.784299 C305.457794,215.780792 305.489844,215.777086 305.521984,215.77318 C305.481895,215.778034 305.442206,215.782793 305.402874,215.787461 Z M306.752648,319.103534 C306.751975,319.104502 306.751305,319.105467 306.750638,319.106429 C306.751489,319.105201 306.753777,319.101576 306.757526,319.095292 Z M300.544542,345.084738 C300.738834,345.103676 300.933517,345.125638 301.132207,345.150505 C301.407422,345.18495 301.551751,345.205433 301.999982,345.27105 C302.353276,345.32277 302.430093,345.331443 302.363712,345.329797 C302.026641,345.321439 301.616396,345.3658 301.199466,345.480327 C300.437116,345.68895 299.886745,345.941979 299.440708,346.20969 C299.292064,346.298907 299.229513,346.343287 299.219051,346.35162 C299.42964,346.183889 299.794255,345.846838 300.255414,345.380707 C300.348811,345.286303 300.445123,345.187705 300.544542,345.084738 Z M353.607073,277.20392 C353.607126,277.20262 353.607179,277.20132 353.607231,277.200021 L353.606918,277.20782 C353.60697,277.206519 353.607021,277.205219 353.607073,277.203919 Z M296.297349,286.502135 L296.298152,286.500837 C300.461948,279.776997 295.18289,271.312888 287.437683,272.183136 C282.476961,272.740578 279.264843,276.062096 279.028365,280.748218 C278.791495,285.455745 281.337068,288.730817 285.675318,289.995008 C290.002267,291.255907 294.194521,289.89901 296.297349,286.502135 Z M268.691723,318.804122 C268.689771,318.802157 268.687831,318.800204 268.685903,318.798264 C268.534609,318.645982 268.407168,318.516863 268.282181,318.388887 C267.935176,318.033581 267.633992,317.714411 267.3392,317.384244 C252.693906,300.974457 247.534161,295.139443 240.56033,286.985297 L234.826379,280.28088 L240.763532,273.755728 C241.367705,273.09172 241.985256,272.416192 242.619393,271.725507 C246.272729,267.74639 259.032065,254.153583 260.847126,252.196767 C261.716278,251.259733 262.549211,250.357944 263.350987,249.485677 C263.890173,248.897917 264.462936,248.324252 265.192488,247.625477 C265.52597,247.306063 266.644329,246.251159 266.81845,246.085365 C267.427512,245.505433 267.863706,245.07378 268.210024,244.705567 C268.209426,244.136916 268.182125,243.327219 268.117773,242.223617 C268.10818,242.059094 268.100615,241.932222 268.082473,241.630336 C267.960524,239.602225 267.92,238.724205 267.92,237.525681 C267.92,229.514266 267.92,227.992178 267.92,222.54467 C260.211369,230.619351 250.645366,240.60868 247.74776,243.674427 C245.128699,246.445633 242.449006,249.298135 239.24504,252.722186 C238.865839,253.127436 238.476846,253.543304 238.073407,253.974759 C238.654743,253.353054 229.13155,263.546845 226.405655,266.455442 C225.916215,266.976029 225.392733,267.497552 224.725828,268.1393 C224.410289,268.442936 223.34631,269.454478 223.189249,269.60485 C222.839675,269.939536 222.55755,270.213683 222.304456,270.465434 C222.167204,270.601958 222.040416,270.730125 221.924185,270.849635 C221.947594,271.434791 221.999686,272.160391 222.093018,273.25997 C222.110047,273.460021 222.110047,273.460021 222.12754,273.664228 C222.291311,275.57541 222.351248,276.376343 222.392964,277.47061 C222.399917,277.657968 222.399917,277.657968 222.406546,277.844823 C222.465603,279.528235 222.4882,280.629177 222.539405,283.762094 C222.572748,285.802073 222.594782,286.808063 222.63322,287.79751 C222.672857,288.873372 222.64312,289.530633 222.524712,291.338297 C222.524189,291.346277 222.523673,291.35416 222.523163,291.36195 C222.634898,291.471038 222.75299,291.585144 222.877339,291.704126 C223.079946,291.897989 223.298397,292.104215 223.540964,292.330849 C223.91627,292.681502 225.346902,294.001171 225.210042,293.874504 C225.940044,294.550139 226.444014,295.02756 226.911068,295.494613 C233.488837,302.072382 238.142602,306.812635 250.061971,319.024108 C250.567102,319.541611 250.567102,319.541611 251.07214,320.058977 C258.701204,327.874034 263.62489,332.892135 268.440537,337.735336 C268.438221,336.279805 268.432866,334.862606 268.421007,332.187568 C268.405165,328.614445 268.4,327.072557 268.4,325.125681 C268.4,323.971192 268.440159,323.161524 268.571058,321.092162 C268.597367,320.676251 268.611968,320.440291 268.626579,320.190579 C268.658521,319.644675 268.680032,319.19137 268.691723,318.804122 Z M269.963077,206.325681 L270.510934,206.325681 L277.194544,212.604632 L277.169813,212.81868 C276.404769,213.632124 275.35101,214.744365 274.093509,216.067314 C273.733408,216.050233 273.326931,216.032312 272.860756,216.012611 C271.085068,215.937571 270.279272,215.896706 269.233035,215.816226 L269.963077,206.325681 Z M221.134159,271.723127 C221.134145,271.723144 221.134132,271.723161 221.134119,271.723177 C221.133121,271.724456 221.134065,271.722941 221.137,271.718295 Z M275.455752,345.111971 C275.676659,345.340769 275.876563,345.539926 276.058576,345.712537 C276.295983,345.937681 276.465208,346.081759 276.526828,346.128583 C276.41718,346.056381 276.291124,345.982455 276.116824,345.895348 C275.739271,345.706665 275.290101,345.535869 274.731853,345.401358 C274.436825,345.330611 274.179897,345.29361 273.958983,345.278926 C273.857476,345.272178 273.803482,345.271915 273.791302,345.27243 C273.905837,345.267583 274.089995,345.251387 274.525828,345.205533 C274.911174,345.16499 275.203947,345.134964 275.455752,345.111971 Z M276.526828,346.128583 C276.532588,346.132959 276.537407,346.136486 276.541255,346.139151 C276.530625,346.13179 276.519416,346.12419 276.507597,346.116351 Z" id="Shape"></path>
        </g>
    </g>
</svg>