<?xml version="1.0" encoding="UTF-8"?>
<svg width="574px" height="565px" viewBox="0 0 574 565" version="1.1" xmlns="http://www.w3.org/2000/svg" xmlns:xlink="http://www.w3.org/1999/xlink">
    <!-- Generator: Sketch 48.2 (47327) - http://www.bohemiancoding.com/sketch -->
    <title>Shape</title>
    <desc>Created with Sketch.</desc>
    <defs></defs>
    <g id="Artboard" stroke="none" stroke-width="1" fill="none" fill-rule="evenodd" transform="translate(-1334.000000, -26.000000)">
        <g id="ghost" transform="translate(1334.000000, 26.000000)" fill="#FFFFFF" fill-rule="nonzero">
            <path d="M272.88,563.925681 C268.21,563.925681 262.19,564.995681 258.24,563.925681 C256.36,563.415681 252.8,558.305681 250.56,555.765681 C214,514.305681 175.39,472.655681 139.2,431.445681 C129.61,420.525681 117.16,411.935681 105.36,402.405681 C73.22,376.445681 41.83,351.815681 8.88,326.086681 C5.62,323.536681 2.48,321.126681 1.2,318.166681 C-0.91,313.306681 1.28,305.566681 0.48,298.966681 C4.58,298.746681 8.75,298.596681 12.96,298.486681 C13.52,289.846681 13.04,280.166681 13.2,271.126681 C8.8,271.126681 4.4,271.126681 0,271.126681 C0,266.246681 0,261.366681 0,256.486681 C0.08,256.486681 0.16,256.486681 0.24,256.486681 C-0.53,251.126681 3.47,248.736681 6,246.406681 C25.55,228.366681 45.12,210.586681 64.56,192.646681 C86.53,172.366681 109.09,152.336681 131.28,130.966681 C152.98,110.066681 172.61,87.716681 194.4,65.926681 C212.51,47.816681 231.07,27.336681 249.6,8.80668102 C252.42,5.98668102 255.22,2.20668102 257.76,0.886681023 C260.95,-0.773318977 268.75,0.406681023 273.6,0.406681023 C283.34,0.406681023 292.03,0.406681023 301.44,0.406681023 C306.259,0.406681023 311.27,-0.163318977 315.599,0.406681023 C319.32,0.896681023 322.4,5.49668102 325.2,8.80668102 C352.31,40.816681 377.97,71.976681 404.88,103.366681 C412.29,112.016681 419.32,120.976681 426.72,129.046681 C429.231,131.786681 432.37,133.766681 435.361,136.246681 C478.55,172.096681 522.131,207.716681 565.441,243.766681 C568.39,246.216681 572.531,249.336681 573.6,251.926681 C573.6,254.966681 573.6,258.006681 573.6,261.046681 C573.04,263.606681 573.521,267.206681 573.361,270.166681 C568.451,270.356681 564.251,269.836681 559.441,269.926681 C559.35,279.776681 559.871,289.016681 559.68,298.966681 C564.16,298.966681 568.64,298.966681 573.12,298.966681 C573.36,304.726681 573.41,310.676681 573.36,316.726681 C567.969,322.056681 561.469,325.996681 555.36,330.406681 C516.179,358.676681 476.81,387.996681 437.52,417.046681 C434.48,419.296681 430.959,421.136681 428.4,423.525681 C426,425.765681 423.98,429.405681 421.679,432.405681 C387.92,476.345681 353.51,520.325681 319.92,564.165681 C309.12,564.165681 298.32,564.165681 287.521,564.165681 C283.19,563.725681 278.26,563.925681 272.88,563.925681 Z M569.76,264.885681 C572.92,264.655681 573.08,253.385681 569.521,253.845681 C566,254.305681 566.14,265.155681 569.76,264.885681 Z M569.28,312.645681 C573.07,312.575681 572.74,301.385681 568.56,302.805681 C565.7,303.775681 565.84,312.705681 569.28,312.645681 Z M363.599,277.605681 C363.73,274.315681 364.53,269.795681 363.839,267.285681 C363.23,265.055681 358.73,261.565681 356.639,259.365681 C341.539,243.455681 327.2,228.585681 312.48,212.805681 C311,211.225681 307.2,205.495681 304.32,205.845681 C302.09,206.115681 300.25,206.055681 298.08,206.325681 C298.08,216.745681 298.08,227.275681 298.08,237.525681 C298.08,240.875681 297.36,245.245681 298.08,248.085681 C298.76,250.765681 303.23,253.715681 305.52,256.245681 C313.259,264.765681 320.74,272.685681 327.839,280.725681 C320.48,288.995681 312.699,297.755681 305.039,306.405681 C303.239,308.435681 298.159,312.745681 297.599,315.285681 C296.98,318.105681 297.599,321.905681 297.599,325.125681 C297.599,335.385681 297.41,345.425681 297.839,355.125681 C299.77,354.645681 301.509,355.765681 303.839,355.125681 C305.889,354.564681 310.029,349.415681 311.52,347.925681 C326.66,332.785681 340.959,317.765681 356.16,302.565681 C358.52,300.205681 362.88,296.645681 363.36,294.645681 C363.71,293.195681 363.27,290.255681 363.36,287.925681 C363.47,285.075681 363.45,281.275681 363.599,277.605681 Z M304.8,291.765681 C313.321,278.005681 302.43,260.435681 286.321,262.245681 C276.621,263.335681 269.531,270.535681 269.041,280.245681 C268.01,300.735681 295.05,307.515681 304.8,291.765681 Z M280.08,7.12568102 C280.14,4.14568102 273.55,4.18568102 271.44,4.48568102 C269.33,4.78568102 266.33,4.82568102 266.64,7.36568102 C267.05,10.705681 280,10.885681 280.08,7.12568102 Z M278.4,325.125681 C278.4,322.005681 279.08,317.735681 278.4,315.045681 C278.09,313.805681 276.05,312.125681 274.8,310.725681 C265.67,300.495681 256.55,290.295681 248.16,280.485681 C255.43,272.495681 263.1,264.535681 270.72,256.245681 C272.94,253.825681 277.33,250.515681 277.92,247.845681 C278.57,244.895681 277.92,240.865681 277.92,237.525681 C277.92,226.905681 277.92,216.755681 277.92,206.325681 C275.41,206.035681 272.6,206.045681 270,205.845681 C260.69,215.755681 250.82,225.865681 240.48,236.805681 C233.25,244.455681 226.43,251.805681 219.12,259.605681 C216.92,261.945681 212.7,265.305681 212.16,267.525681 C211.53,270.145681 212.27,274.435681 212.4,277.845681 C212.54,281.575681 212.53,285.335681 212.64,288.165681 C212.71,290.065681 212.17,293.165681 212.64,294.885681 C213.14,296.695681 217.77,300.495681 219.84,302.565681 C235.17,317.895681 249.23,332.675681 264.48,347.925681 C266.37,349.815681 269.91,354.525681 272.4,355.125681 C274.36,355.595681 276.66,354.755681 278.16,355.125681 C278.59,345.395681 278.4,334.995681 278.4,325.125681 Z M5.28,266.565681 C8.85,266.565681 8.35,256.165681 4.8,257.205681 C2.09,257.995681 2.04,266.565681 5.28,266.565681 Z M4.56,314.085681 C7.72,313.085681 7.7,303.345681 4.08,303.765681 C0.91,304.135681 0.99,313.545681 4.56,314.085681 Z" id="Shape"></path>
        </g>
    </g>
</svg>